<svg width="195" height="46" viewBox="0 0 195 46" fill="none" xmlns="http://www.w3.org/2000/svg">
<path d="M12.25 45.3636C10.3068 45.3636 8.63635 45.1136 7.23862 44.6136C5.84089 44.125 4.67612 43.4773 3.7443 42.6705C2.82385 41.875 2.09089 41.0227 1.54544 40.1136L4.74998 37.8636C5.11362 38.3409 5.57385 38.8864 6.13067 39.5C6.68748 40.125 7.44885 40.6648 8.41476 41.1193C9.39203 41.5852 10.6704 41.8182 12.25 41.8182C14.3636 41.8182 16.1079 41.3068 17.4829 40.2841C18.8579 39.2614 19.5454 37.6591 19.5454 35.4773V30.1591H19.2045C18.9091 30.6364 18.4886 31.2273 17.9432 31.9318C17.4091 32.625 16.6363 33.2443 15.625 33.7898C14.625 34.3239 13.2727 34.5909 11.5682 34.5909C9.45453 34.5909 7.5568 34.0909 5.87498 33.0909C4.20453 32.0909 2.88067 30.6364 1.90339 28.7273C0.937483 26.8182 0.454529 24.5 0.454529 21.7727C0.454529 19.0909 0.92612 16.7557 1.8693 14.767C2.81248 12.767 4.12498 11.2216 5.8068 10.1307C7.48862 9.02841 9.4318 8.47728 11.6363 8.47728C13.3409 8.47728 14.6932 8.76137 15.6932 9.32955C16.7045 9.88637 17.4773 10.5227 18.0113 11.2386C18.5568 11.9432 18.9773 12.5227 19.2727 12.9773H19.6818V8.81818H23.5682V35.75C23.5682 38 23.0568 39.8295 22.0341 41.2386C21.0227 42.6591 19.6591 43.6989 17.9432 44.358C16.2386 45.0284 14.3409 45.3636 12.25 45.3636ZM12.1136 30.9773C13.7273 30.9773 15.0909 30.608 16.2045 29.8693C17.3182 29.1307 18.1648 28.0682 18.7443 26.6818C19.3238 25.2955 19.6136 23.6364 19.6136 21.7045C19.6136 19.8182 19.3295 18.1534 18.7613 16.7102C18.1932 15.267 17.3523 14.1364 16.2386 13.3182C15.125 12.5 13.75 12.0909 12.1136 12.0909C10.4091 12.0909 8.98862 12.5227 7.85226 13.3864C6.72726 14.25 5.88067 15.4091 5.31248 16.8636C4.75567 18.3182 4.47726 19.9318 4.47726 21.7045C4.47726 23.5227 4.76135 25.1307 5.32953 26.5284C5.90907 27.9148 6.76135 29.0057 7.88635 29.8011C9.02271 30.5852 10.4318 30.9773 12.1136 30.9773Z" fill="white"/>
<path d="M34.9545 0.0909119V35H30.9318V0.0909119H34.9545Z" fill="white"/>
<path d="M58.8224 24.2955V8.81818H62.8452V35H58.8224V30.5682H58.5497C57.9361 31.8977 56.9815 33.0284 55.6861 33.9602C54.3906 34.8807 52.7542 35.3409 50.777 35.3409C49.1406 35.3409 47.6861 34.983 46.4133 34.267C45.1406 33.5398 44.1406 32.4489 43.4133 30.9943C42.6861 29.5284 42.3224 27.6818 42.3224 25.4545V8.81818H46.3452V25.1818C46.3452 27.0909 46.8792 28.6136 47.9474 29.75C49.027 30.8864 50.402 31.4545 52.0724 31.4545C53.0724 31.4545 54.0895 31.1989 55.1236 30.6875C56.169 30.1761 57.044 29.3921 57.7486 28.3352C58.4645 27.2784 58.8224 25.9318 58.8224 24.2955Z" fill="white"/>
<path d="M70.2131 35V8.81818H74.0994V12.7727H74.3721C74.8494 11.4773 75.7131 10.4261 76.9631 9.61932C78.2131 8.8125 79.6221 8.40909 81.1903 8.40909C81.4858 8.40909 81.8551 8.41478 82.2983 8.42614C82.7415 8.4375 83.0767 8.45455 83.304 8.47728V12.5682C83.1676 12.5341 82.8551 12.483 82.3665 12.4148C81.8892 12.3352 81.3835 12.2955 80.8494 12.2955C79.5767 12.2955 78.4403 12.5625 77.4403 13.0966C76.4517 13.6193 75.6676 14.3466 75.0881 15.2784C74.5199 16.1989 74.2358 17.25 74.2358 18.4318V35H70.2131Z" fill="white"/>
<path d="M97.8437 45.3636C95.9006 45.3636 94.2301 45.1136 92.8324 44.6136C91.4346 44.125 90.2699 43.4773 89.3381 42.6705C88.4176 41.875 87.6846 41.0227 87.1392 40.1136L90.3437 37.8636C90.7074 38.3409 91.1676 38.8864 91.7244 39.5C92.2812 40.125 93.0426 40.6648 94.0085 41.1193C94.9858 41.5852 96.2642 41.8182 97.8437 41.8182C99.9574 41.8182 101.702 41.3068 103.077 40.2841C104.452 39.2614 105.139 37.6591 105.139 35.4773V30.1591H104.798C104.503 30.6364 104.082 31.2273 103.537 31.9318C103.003 32.625 102.23 33.2443 101.219 33.7898C100.219 34.3239 98.8665 34.5909 97.1619 34.5909C95.0483 34.5909 93.1506 34.0909 91.4687 33.0909C89.7983 32.0909 88.4744 30.6364 87.4971 28.7273C86.5312 26.8182 86.0483 24.5 86.0483 21.7727C86.0483 19.0909 86.5199 16.7557 87.4631 14.767C88.4062 12.767 89.7187 11.2216 91.4006 10.1307C93.0824 9.02841 95.0255 8.47728 97.2301 8.47728C98.9346 8.47728 100.287 8.76137 101.287 9.32955C102.298 9.88637 103.071 10.5227 103.605 11.2386C104.151 11.9432 104.571 12.5227 104.866 12.9773H105.276V8.81818H109.162V35.75C109.162 38 108.651 39.8295 107.628 41.2386C106.616 42.6591 105.253 43.6989 103.537 44.358C101.832 45.0284 99.9346 45.3636 97.8437 45.3636ZM97.7074 30.9773C99.321 30.9773 100.685 30.608 101.798 29.8693C102.912 29.1307 103.759 28.0682 104.338 26.6818C104.918 25.2955 105.207 23.6364 105.207 21.7045C105.207 19.8182 104.923 18.1534 104.355 16.7102C103.787 15.267 102.946 14.1364 101.832 13.3182C100.719 12.5 99.3437 12.0909 97.7074 12.0909C96.0028 12.0909 94.5824 12.5227 93.446 13.3864C92.321 14.25 91.4744 15.4091 90.9062 16.8636C90.3494 18.3182 90.071 19.9318 90.071 21.7045C90.071 23.5227 90.3551 25.1307 90.9233 26.5284C91.5028 27.9148 92.3551 29.0057 93.4801 29.8011C94.6165 30.5852 96.0256 30.9773 97.7074 30.9773Z" fill="white"/>
<path d="M127.503 35.5455C124.98 35.5455 122.804 34.9886 120.974 33.875C119.156 32.75 117.753 31.1818 116.764 29.1705C115.787 27.1477 115.298 24.7955 115.298 22.1136C115.298 19.4318 115.787 17.0682 116.764 15.0227C117.753 12.9659 119.128 11.3636 120.889 10.2159C122.662 9.05682 124.73 8.47728 127.094 8.47728C128.457 8.47728 129.804 8.70455 131.134 9.15909C132.463 9.61364 133.673 10.3523 134.764 11.375C135.855 12.3864 136.724 13.7273 137.372 15.3977C138.02 17.0682 138.344 19.125 138.344 21.5682V23.2727H118.162V19.7955H134.253C134.253 18.3182 133.957 17 133.366 15.8409C132.787 14.6818 131.957 13.767 130.878 13.0966C129.81 12.4261 128.548 12.0909 127.094 12.0909C125.491 12.0909 124.105 12.4886 122.935 13.2841C121.776 14.0682 120.884 15.0909 120.259 16.3523C119.634 17.6136 119.321 18.9659 119.321 20.4091V22.7273C119.321 24.7045 119.662 26.3807 120.344 27.7557C121.037 29.1193 121.997 30.1591 123.224 30.875C124.452 31.5795 125.878 31.9318 127.503 31.9318C128.56 31.9318 129.514 31.7841 130.366 31.4886C131.23 31.1818 131.974 30.7273 132.599 30.125C133.224 29.5114 133.707 28.75 134.048 27.8409L137.935 28.9318C137.526 30.25 136.838 31.4091 135.872 32.4091C134.906 33.3977 133.713 34.1705 132.293 34.7273C130.872 35.2727 129.276 35.5455 127.503 35.5455Z" fill="white"/>
<path d="M155.44 35.5455C152.918 35.5455 150.741 34.9886 148.912 33.875C147.094 32.75 145.69 31.1818 144.702 29.1705C143.724 27.1477 143.236 24.7955 143.236 22.1136C143.236 19.4318 143.724 17.0682 144.702 15.0227C145.69 12.9659 147.065 11.3636 148.827 10.2159C150.599 9.05682 152.668 8.47728 155.031 8.47728C156.395 8.47728 157.741 8.70455 159.071 9.15909C160.401 9.61364 161.611 10.3523 162.702 11.375C163.793 12.3864 164.662 13.7273 165.31 15.3977C165.957 17.0682 166.281 19.125 166.281 21.5682V23.2727H146.099V19.7955H162.19C162.19 18.3182 161.895 17 161.304 15.8409C160.724 14.6818 159.895 13.767 158.815 13.0966C157.747 12.4261 156.486 12.0909 155.031 12.0909C153.429 12.0909 152.043 12.4886 150.872 13.2841C149.713 14.0682 148.821 15.0909 148.196 16.3523C147.571 17.6136 147.259 18.9659 147.259 20.4091V22.7273C147.259 24.7045 147.599 26.3807 148.281 27.7557C148.974 29.1193 149.935 30.1591 151.162 30.875C152.389 31.5795 153.815 31.9318 155.44 31.9318C156.497 31.9318 157.452 31.7841 158.304 31.4886C159.168 31.1818 159.912 30.7273 160.537 30.125C161.162 29.5114 161.645 28.75 161.986 27.8409L165.872 28.9318C165.463 30.25 164.776 31.4091 163.81 32.4091C162.844 33.3977 161.651 34.1705 160.23 34.7273C158.81 35.2727 157.213 35.5455 155.44 35.5455Z" fill="white"/>
<path d="M176.151 25.4545L176.082 20.4773H176.901L188.355 8.81818H193.332L181.128 21.1591H180.787L176.151 25.4545ZM172.401 35V0.0909119H176.423V35H172.401ZM189.037 35L178.81 22.0455L181.673 19.25L194.151 35H189.037Z" fill="white"/>
</svg>
