<svg width="100" height="100" viewBox="0 0 100 100" fill="none" xmlns="http://www.w3.org/2000/svg">
<path d="M97.052 14.1291C96.5589 14.2992 96.066 14.4576 95.5731 14.605C92.5595 15.5036 92.2825 14.3179 94.4643 11.7018C95.4414 10.5296 96.3047 9.25457 97.0544 7.87747C98.735 4.78943 97.2774 3.44274 94.4181 4.88522C93.3982 5.39978 92.3614 5.86634 91.3103 6.2823C88.3642 7.45066 84.1837 5.68823 81.5586 3.72207C78.2445 1.24026 74.4782 0 70.2582 0C64.3472 0 59.309 2.46183 55.1406 7.38159C50.9734 12.3039 48.8887 18.2554 48.8887 25.2341C48.8887 26.1885 48.9349 27.1575 49.0261 28.1399C49.1759 29.739 46.8953 30.8982 43.8178 30.385C37.1605 29.275 30.8355 26.8929 24.8414 23.2412C18.8967 19.6201 13.6501 15.0633 9.1024 9.5706C6.92851 6.94543 3.98837 7.17155 3.17669 10.7153C2.69037 12.8396 2.4485 15.0488 2.4485 17.3434C2.4485 21.6675 3.30838 25.6781 5.0285 29.3749C5.88397 31.2147 6.88584 32.8802 8.03633 34.3705C9.97147 36.879 9.67534 38.3345 6.98167 37.4427C4.2891 36.5508 2.31589 35.2267 2.31589 35.3132C2.31589 35.3996 2.31589 35.47 2.31589 35.47C2.31589 41.5622 3.93577 46.9153 7.17756 51.524C9.1745 54.3634 11.4944 56.5567 14.1364 58.1015C16.9224 59.7312 18.2202 60.6402 16.6623 60.8783C15.7224 61.0219 14.7769 61.0936 13.8257 61.0936C13.182 61.0936 12.5066 61.059 11.802 60.9886C10.6875 60.877 10.4872 63.6192 12.1768 66.7008C13.5197 69.1494 15.2385 71.3041 17.3324 73.1653C19.4621 75.0596 21.7574 76.4193 24.2146 77.2475C27.2044 78.2538 27.8043 80.0871 25.1386 81.9746C18.5423 86.6487 11.2424 88.9854 3.24014 88.9854C2.33851 88.9854 1.47845 88.9615 0.656829 88.915C-0.769374 88.834 0.187436 90.3173 2.9407 92.0202C11.5441 97.3416 20.8611 100 30.8931 100C38.4779 100 45.601 98.5819 52.2615 95.7436C58.9196 92.9056 64.6099 89.1023 69.3286 84.3367C74.0474 79.5712 78.1167 74.0904 81.5352 67.8917C84.9529 61.6933 87.499 55.222 89.1763 48.4786C90.8512 41.7336 91.6899 34.9754 91.6899 28.204C91.6899 27.5938 91.6855 27.046 91.6776 26.5636C91.6618 25.657 93.6925 23.203 95.9595 20.6921C96.9827 19.5582 97.9586 18.3684 98.8908 17.1203C100.947 14.3644 100.036 13.1015 97.052 14.1291Z" fill="white"/>
</svg>
