<svg width="100" height="100" viewBox="0 0 100 72" fill="none" xmlns="http://www.w3.org/2000/svg">
<path d="M96.1022 6.85323C92.4926 2.56226 85.8281 0.811935 73.1003 0.811935H26.8987C13.8797 0.811935 7.10226 2.67516 3.50613 7.24355C0 11.6977 0 18.2606 0 27.3439V44.6565C0 62.2535 4.16 71.1881 26.8987 71.1881H73.1006C84.1381 71.1881 90.2542 69.6436 94.211 65.8568C98.2687 61.9736 100 55.6332 100 44.6565V27.3439C100 17.7648 99.7287 11.1632 96.1022 6.85323ZM64.2003 38.3903L43.2203 49.3552C42.7513 49.6003 42.2384 49.7219 41.7261 49.7219C41.1461 49.7219 40.5674 49.5658 40.0548 49.2555C39.0897 48.6706 38.5003 47.6245 38.5003 46.4961V24.6368C38.5003 23.5103 39.0881 22.4652 40.0513 21.88C41.0148 21.2948 42.2132 21.2548 43.2129 21.7742L64.1929 32.6684C65.2603 33.2226 65.9306 34.3245 65.9323 35.5268C65.9335 36.73 65.2661 37.8336 64.2003 38.3903Z" fill="#FFB4B4"/>
</svg>
